#!OML:ASF E:\Style4\Style4.ASF
:FULLY-SPECIFIED
:DEGREES
1247
root -1.22343 17.1144 -1.5849 3.1359 13.6179 4.50606
lowerback 14.7938 4.3259 -2.06315
upperback 8.8855 5.50267 -2.98494
thorax 1.26178 2.80038 -2.69684
lowerneck 4.92709 -8.906 -6.59607
upperneck 1.37497 -12.2545 11.9502
head 0.762012 -6.22686 4.60875
rclavicle 6.99163e-015 -7.647e-015
rhumerus 47.1787 -9.96078 -5.26426
rradius 52.814
rwrist -22.2953
rhand 5.4823 9.87449
rfingers 7.12502
rthumb 30.8299 -17.5593
lclavicle 6.99163e-015 -7.647e-015
lhumerus 41.7935 5.18193 0.0928898
lradius 88.8616
lwrist 23.8953
lhand 10.8196 22.2928
lfingers 7.12502
lthumb 35.9033 48.633
rfemur -28.3397 -11.8514 19.4159
rtibia 51.1677
rfoot -24.8623 -20.9478
rtoes -5.48881
lfemur -28.463 -1.68211 -18.8013
ltibia 42.7824
lfoot -15.6869 0.420766
ltoes -19.2123
1248
root -1.22679 17.1071 -1.57616 3.12504 13.766 4.67565
lowerback 14.8171 4.43603 -1.97251
upperback 8.91534 5.66001 -2.89702
thorax 1.28579 2.88135 -2.67643
lowerneck 5.14639 -9.08025 -6.57656
upperneck 1.08551 -12.4693 11.841
head 0.654381 -6.34589 4.58764
rclavicle 8.92046e-014 -6.68413e-014
rhumerus 47.0533 -9.80418 -5.30907
rradius 52.8179
rwrist -22.1911
rhand 5.46739 9.76832
rfingers 7.12502
rthumb 30.8157 -17.6681
lclavicle 8.92046e-014 -6.68413e-014
lhumerus 41.4989 5.58947 -0.367371
lradius 89.1216
lwrist 24.2384
lhand 11.0963 22.7897
lfingers 7.12502
lthumb 36.1654 49.0654
rfemur -28.3462 -12.0064 19.2393
rtibia 51.3689
rfoot -24.9986 -20.9785
rtoes -5.42719
lfemur -28.458 -1.7787 -18.9775
ltibia 42.8837
lfoot -15.7185 0.384185
ltoes -19.4991
1249
root -1.22974 17.1005 -1.56797 3.05522 13.8795 4.68135
lowerback 14.8431 4.50022 -1.7702
upperback 8.98051 5.77159 -2.75324
thorax 1.3488 2.94227 -2.65172
lowerneck 5.16639 -9.24591 -6.56189
upperneck 0.915637 -12.6761 11.6931
head 0.610829 -6.45208 4.54227
rclavicle 5.69518e-014 -4.21423e-014
rhumerus 47.1029 -9.69855 -5.38006
rradius 52.7867
rwrist -22.0551
rhand 5.49532 10.2085
rfingers 7.12502
rthumb 30.8423 -17.2229
lclavicle 5.69518e-014 -4.21423e-014
lhumerus 41.0029 6.05989 -0.836652
lradius 89.3591
lwrist 24.7104
lhand 10.9475 22.7128
lfingers 7.12502
lthumb 36.0244 49.0233
rfemur -28.299 -12.0617 19.2288
rtibia 51.5252
rfoot -25.1836 -20.9741
rtoes -5.01776
lfemur -28.4229 -1.83044 -18.9749
ltibia 42.9553
lfoot -15.7466 0.390518
ltoes -19.712
1250
root -1.22991 17.0958 -1.55957 2.99361 13.9786 4.78066
lowerback 14.8534 4.53933 -1.68583
upperback 9.11666 5.83973 -2.59675
thorax 1.4819 2.97699 -2.53805
lowerneck 4.85818 -9.40894 -6.56777
upperneck 0.898429 -12.881 11.4393
head 0.658952 -6.5442 4.44616
rclavicle -2.70347e-014 1.70955e-014
rhumerus 47.2529 -9.66638 -5.43393
rradius 52.7877
rwrist -21.9983
rhand 5.2548 10.7327
rfingers 7.12502
rthumb 30.613 -16.7418
lclavicle -2.70347e-014 1.70955e-014
lhumerus 40.4625 6.66838 -1.24988
lradius 89.4746
lwrist 25.1908
lhand 10.8244 22.4974
lfingers 7.12502
lthumb 35.9079 48.8365
rfemur -28.2271 -12.1437 19.1029
rtibia 51.6473
rfoot -25.2517 -20.963
rtoes -4.86595
lfemur -28.3356 -1.94791 -19.0831
ltibia 42.9846
lfoot -15.7808 0.50661
ltoes -20.0847
1251
root -1.22659 17.0921 -1.55262 2.99502 14.0834 4.90829
lowerback 14.8222 4.57102 -1.59059
upperback 9.20429 5.89856 -2.45559
thorax 1.58716 3.00742 -2.44389
lowerneck 4.65801 -9.54985 -6.63278
upperneck 0.877216 -13.063 11.2692
head 0.695027 -6.62889 4.38997
rclavicle 8.48811e-014 -5.00937e-014
rhumerus 47.3498 -9.60698 -5.54555
rradius 52.8295
rwrist -21.8929
rhand 5.17716 10.8585
rfingers 7.12502
rthumb 30.5389 -16.6298
lclavicle 8.48811e-014 -5.00937e-014
lhumerus 40.0856 7.27828 -1.63303
lradius 89.4281
lwrist 25.6221
lhand 11.0514 22.3481
lfingers 7.12502
lthumb 36.1228 48.6344
rfemur -28.1934 -12.244 18.937
rtibia 51.7226
rfoot -25.3192 -20.9233
rtoes -5.04201
lfemur -28.2954 -2.05227 -19.2426
ltibia 42.9965
lfoot -15.7894 0.568201
ltoes -20.3401
1252
root -1.22325 17.0911 -1.54594 2.96343 14.1508 4.9444
lowerback 14.8203 4.61489 -1.39994
upperback 9.21833 5.97974 -2.31348
thorax 1.60817 3.05222 -2.41039
lowerneck 4.64173 -9.68884 -6.75085
upperneck 0.886673 -13.2538 11.1879
head 0.720398 -6.72304 4.37661
rclavicle 2.74323e-014 5.1684e-015
rhumerus 47.3811 -9.45023 -5.49598
rradius 52.8687
rwrist -21.9613
rhand 5.19856 10.8085
rfingers 7.12502
rthumb 30.5593 -16.6761
lclavicle 2.74323e-014 5.1684e-015
lhumerus 39.7067 7.77435 -2.04669
lradius 89.5818
lwrist 26.0753
lhand 11.3752 22.3268
lfingers 7.12502
lthumb 36.4295 48.5366
rfemur -28.1203 -12.256 18.8729
rtibia 51.7503
rfoot -25.4034 -20.8952
rtoes -5.08963
lfemur -28.2195 -2.1059 -19.2921
ltibia 42.9719
lfoot -15.7859 0.538315
ltoes -20.027
1253
root -1.21785 17.0933 -1.53854 2.90413 14.1886 4.94723
lowerback 14.8116 4.67318 -1.14886
upperback 9.21106 6.08634 -2.18429
thorax 1.61878 3.11255 -2.42725
lowerneck 4.7961 -9.82429 -6.77482
upperneck 0.823339 -13.4302 10.6512
head 0.737259 -6.81898 4.69467
rclavicle 4.79071e-014 -5.24792e-014
rhumerus 47.3644 -9.25019 -5.44637
rradius 52.9103
rwrist -22.0647
rhand 5.17317 10.7704
rfingers 7.12502
rthumb 30.5351 -16.7187
lclavicle 4.79071e-014 -5.24792e-014
lhumerus 39.3456 8.19056 -2.4496
lradius 89.9457
lwrist 26.4889
lhand 11.5608 22.6597
lfingers 7.12502
lthumb 36.6052 48.8253
rfemur -27.989 -12.2603 18.8317
rtibia 51.7257
rfoot -25.4566 -20.8852
rtoes -5.08038
lfemur -28.0976 -2.19234 -19.3098
ltibia 42.9235
lfoot -15.7914 0.575387
ltoes -19.7898
1254
root -1.21036 17.0971 -1.53251 2.84566 14.1822 4.9494
lowerback 14.7776 4.74725 -0.944259
upperback 9.1816 6.20766 -2.03414
thorax 1.61259 3.17709 -2.3975
lowerneck 5.0414 -9.96904 -6.61315
upperneck 0.697814 -13.6106 10.3214
head 0.630921 -6.91277 4.56518
rclavicle 5.54609e-014 -1.19271e-014
rhumerus 47.3028 -8.97498 -5.41611
rradius 53.0018
rwrist -22.125
rhand 5.13367 10.8227
rfingers 7.12502
rthumb 30.4975 -16.6733
lclavicle 5.54609e-014 -1.19271e-014
lhumerus 39.0389 8.60295 -2.84661
lradius 90.2437
lwrist 26.9647
lhand 11.548 22.9223
lfingers 7.12502
lthumb 36.5931 49.0909
rfemur -27.8473 -12.2312 18.7773
rtibia 51.6545
rfoot -25.4767 -20.8336
rtoes -4.56829
lfemur -27.9589 -2.26011 -19.3315
ltibia 42.8542
lfoot -15.7985 0.627506
ltoes -19.5817
1255
root -1.2028 17.1029 -1.52758 2.81683 14.1404 4.98445
lowerback 14.6982 4.81036 -0.812158
upperback 9.20042 6.30863 -1.8593
thorax 1.67064 3.22809 -2.29285
lowerneck 5.13063 -10.0979 -6.54935
upperneck 0.582837 -13.7718 9.99249
head 0.56088 -6.99322 4.44495
rclavicle 3.20043e-014 -2.10712e-014
rhumerus 47.3798 -8.80251 -5.36839
rradius 53.051
rwrist -22.1436
rhand 5.10321 10.8236
rfingers 7.12502
rthumb 30.4684 -16.6778
lclavicle 3.20043e-014 -2.10712e-014
lhumerus 38.7282 9.14801 -3.2024
lradius 90.4427
lwrist 27.5212
lhand 11.4912 22.9836
lfingers 7.12502
lthumb 36.5393 49.1657
rfemur -27.7283 -12.1522 18.6928
rtibia 51.5511
rfoot -25.4252 -20.8602
rtoes -4.51854
lfemur -27.8276 -2.26562 -19.3927
ltibia 42.7437
lfoot -15.779 0.612372
ltoes -19.0147
1256
root -1.19585 17.1094 -1.52309 2.79697 14.0864 5.01578
lowerback 14.6414 4.87588 -0.621609
upperback 9.21538 6.41859 -1.72119
thorax 1.72401 3.28739 -2.26154
lowerneck 5.10861 -10.2237 -6.5974
upperneck 0.558511 -13.9386 9.82556
head 0.562222 -7.07459 4.39032
rclavicle 2.38542e-015 -1.59028e-014
rhumerus 47.4724 -8.64528 -5.26922
rradius 52.9989
rwrist -22.1483
rhand 5.01285 10.8872
rfingers 7.12502
rthumb 30.3822 -16.6302
lclavicle 2.38542e-015 -1.59028e-014
lhumerus 38.5993 9.73985 -3.58561
lradius 90.5495
lwrist 28.0217
lhand 11.5736 23.2362
lfingers 7.12502
lthumb 36.6173 49.3987
rfemur -27.6101 -12.0584 18.629
rtibia 51.4213
rfoot -25.384 -20.9083
rtoes -4.66561
lfemur -27.6795 -2.21932 -19.4518
ltibia 42.5817
lfoot -15.7446 0.58478
ltoes -18.7299
